<mxfile host="app.diagrams.net" modified="2022-03-08T16:02:26.970Z" agent="5.0 (Windows NT 10.0; Win64; x64) AppleWebKit/537.36 (KHTML, like Gecko) Chrome/99.0.4844.51 Safari/537.36" etag="eWL8K5G_EiFo2zqJNjV4" version="16.6.5" type="github">
  <diagram id="iATgErbgnzT0rudV7ZJe" name="Page-1">
    <mxGraphModel dx="1840" dy="1219" grid="1" gridSize="10" guides="1" tooltips="1" connect="1" arrows="1" fold="1" page="1" pageScale="1" pageWidth="2336" pageHeight="1654" math="0" shadow="0">
      <root>
        <mxCell id="0" />
        <mxCell id="1" parent="0" />
        <mxCell id="AXCi9-3YGEwYE7fbBooy-9" value="" style="whiteSpace=wrap;html=1;dashed=1;strokeColor=#006600;strokeWidth=2;shadow=1;" vertex="1" parent="1">
          <mxGeometry x="380" y="110" width="760" height="510" as="geometry" />
        </mxCell>
        <mxCell id="AXCi9-3YGEwYE7fbBooy-13" style="edgeStyle=orthogonalEdgeStyle;rounded=0;orthogonalLoop=1;jettySize=auto;html=1;" edge="1" parent="1" source="AXCi9-3YGEwYE7fbBooy-2" target="AXCi9-3YGEwYE7fbBooy-6">
          <mxGeometry relative="1" as="geometry">
            <Array as="points">
              <mxPoint x="250" y="175" />
              <mxPoint x="250" y="245" />
            </Array>
          </mxGeometry>
        </mxCell>
        <mxCell id="AXCi9-3YGEwYE7fbBooy-2" value="" style="aspect=fixed;perimeter=ellipsePerimeter;html=1;align=center;shadow=0;dashed=0;spacingTop=3;image;image=img/lib/active_directory/user.svg;" vertex="1" parent="1">
          <mxGeometry x="130" y="150" width="18.5" height="50" as="geometry" />
        </mxCell>
        <mxCell id="AXCi9-3YGEwYE7fbBooy-12" style="edgeStyle=orthogonalEdgeStyle;rounded=0;orthogonalLoop=1;jettySize=auto;html=1;" edge="1" parent="1" source="AXCi9-3YGEwYE7fbBooy-3" target="AXCi9-3YGEwYE7fbBooy-6">
          <mxGeometry relative="1" as="geometry">
            <Array as="points">
              <mxPoint x="250" y="325" />
              <mxPoint x="250" y="245" />
            </Array>
          </mxGeometry>
        </mxCell>
        <mxCell id="AXCi9-3YGEwYE7fbBooy-3" value="" style="aspect=fixed;perimeter=ellipsePerimeter;html=1;align=center;shadow=0;dashed=0;spacingTop=3;image;image=img/lib/active_directory/user.svg;" vertex="1" parent="1">
          <mxGeometry x="130" y="300" width="18.5" height="50" as="geometry" />
        </mxCell>
        <mxCell id="AXCi9-3YGEwYE7fbBooy-11" style="edgeStyle=orthogonalEdgeStyle;rounded=0;orthogonalLoop=1;jettySize=auto;html=1;" edge="1" parent="1" source="AXCi9-3YGEwYE7fbBooy-4" target="AXCi9-3YGEwYE7fbBooy-6">
          <mxGeometry relative="1" as="geometry" />
        </mxCell>
        <mxCell id="AXCi9-3YGEwYE7fbBooy-4" value="" style="aspect=fixed;perimeter=ellipsePerimeter;html=1;align=center;shadow=0;dashed=0;spacingTop=3;image;image=img/lib/active_directory/user.svg;" vertex="1" parent="1">
          <mxGeometry x="90" y="220" width="18.5" height="50" as="geometry" />
        </mxCell>
        <mxCell id="AXCi9-3YGEwYE7fbBooy-6" value="app.dell.com" style="verticalLabelPosition=bottom;sketch=0;aspect=fixed;html=1;verticalAlign=top;strokeColor=none;align=center;outlineConnect=0;shape=mxgraph.citrix.proxy_server;fontStyle=0;fontSize=20;" vertex="1" parent="1">
          <mxGeometry x="350" y="200" width="76.5" height="90" as="geometry" />
        </mxCell>
        <mxCell id="AXCi9-3YGEwYE7fbBooy-7" value="app-next.dell.com" style="verticalLabelPosition=bottom;sketch=0;aspect=fixed;html=1;verticalAlign=top;strokeColor=none;align=center;outlineConnect=0;shape=mxgraph.citrix.proxy_server;fontStyle=0;fontSize=20;" vertex="1" parent="1">
          <mxGeometry x="350" y="450" width="76.5" height="90" as="geometry" />
        </mxCell>
        <mxCell id="AXCi9-3YGEwYE7fbBooy-10" style="edgeStyle=orthogonalEdgeStyle;rounded=0;orthogonalLoop=1;jettySize=auto;html=1;" edge="1" parent="1" source="AXCi9-3YGEwYE7fbBooy-8" target="AXCi9-3YGEwYE7fbBooy-7">
          <mxGeometry relative="1" as="geometry" />
        </mxCell>
        <mxCell id="AXCi9-3YGEwYE7fbBooy-8" value="" style="aspect=fixed;perimeter=ellipsePerimeter;html=1;align=center;shadow=0;dashed=0;spacingTop=3;image;image=img/lib/active_directory/user.svg;" vertex="1" parent="1">
          <mxGeometry x="111.5" y="470" width="18.5" height="50" as="geometry" />
        </mxCell>
        <mxCell id="AXCi9-3YGEwYE7fbBooy-21" value="" style="group" vertex="1" connectable="0" parent="1">
          <mxGeometry x="570" y="160" width="480" height="170" as="geometry" />
        </mxCell>
        <mxCell id="AXCi9-3YGEwYE7fbBooy-16" value="" style="whiteSpace=wrap;html=1;shadow=1;strokeColor=#006600;strokeWidth=0;fillColor=#99FF99;" vertex="1" parent="AXCi9-3YGEwYE7fbBooy-21">
          <mxGeometry width="480" height="170" as="geometry" />
        </mxCell>
        <mxCell id="AXCi9-3YGEwYE7fbBooy-15" value="" style="fontColor=#0066CC;verticalAlign=top;verticalLabelPosition=bottom;labelPosition=center;align=center;html=1;outlineConnect=0;fillColor=#CCCCCC;strokeColor=#6881B3;gradientColor=none;gradientDirection=north;strokeWidth=2;shape=mxgraph.networks.server;dashed=1;shadow=1;" vertex="1" parent="AXCi9-3YGEwYE7fbBooy-21">
          <mxGeometry x="330" y="40" width="80" height="80" as="geometry" />
        </mxCell>
        <mxCell id="AXCi9-3YGEwYE7fbBooy-17" value="" style="fontColor=#0066CC;verticalAlign=top;verticalLabelPosition=bottom;labelPosition=center;align=center;html=1;outlineConnect=0;fillColor=#CCCCCC;strokeColor=#6881B3;gradientColor=none;gradientDirection=north;strokeWidth=2;shape=mxgraph.networks.server;dashed=1;shadow=1;" vertex="1" parent="AXCi9-3YGEwYE7fbBooy-21">
          <mxGeometry x="50" y="40" width="80" height="80" as="geometry" />
        </mxCell>
        <mxCell id="AXCi9-3YGEwYE7fbBooy-18" value="" style="fontColor=#0066CC;verticalAlign=top;verticalLabelPosition=bottom;labelPosition=center;align=center;html=1;outlineConnect=0;fillColor=#CCCCCC;strokeColor=#6881B3;gradientColor=none;gradientDirection=north;strokeWidth=2;shape=mxgraph.networks.server;dashed=1;shadow=1;" vertex="1" parent="AXCi9-3YGEwYE7fbBooy-21">
          <mxGeometry x="190" y="40" width="80" height="80" as="geometry" />
        </mxCell>
        <mxCell id="AXCi9-3YGEwYE7fbBooy-22" value="" style="group;fillColor=#99CCFF;strokeColor=#6c8ebf;strokeWidth=0;" vertex="1" connectable="0" parent="1">
          <mxGeometry x="570" y="400" width="480" height="170" as="geometry" />
        </mxCell>
        <mxCell id="AXCi9-3YGEwYE7fbBooy-23" value="" style="whiteSpace=wrap;html=1;shadow=1;strokeColor=none;strokeWidth=0;fillColor=#99CCFF;" vertex="1" parent="AXCi9-3YGEwYE7fbBooy-22">
          <mxGeometry width="480" height="170" as="geometry" />
        </mxCell>
        <mxCell id="AXCi9-3YGEwYE7fbBooy-24" value="" style="fontColor=#0066CC;verticalAlign=top;verticalLabelPosition=bottom;labelPosition=center;align=center;html=1;outlineConnect=0;fillColor=#CCCCCC;strokeColor=#6881B3;gradientColor=none;gradientDirection=north;strokeWidth=2;shape=mxgraph.networks.server;dashed=1;shadow=1;" vertex="1" parent="AXCi9-3YGEwYE7fbBooy-22">
          <mxGeometry x="330" y="40" width="80" height="80" as="geometry" />
        </mxCell>
        <mxCell id="AXCi9-3YGEwYE7fbBooy-25" value="" style="fontColor=#0066CC;verticalAlign=top;verticalLabelPosition=bottom;labelPosition=center;align=center;html=1;outlineConnect=0;fillColor=#CCCCCC;strokeColor=#6881B3;gradientColor=none;gradientDirection=north;strokeWidth=2;shape=mxgraph.networks.server;dashed=1;shadow=1;" vertex="1" parent="AXCi9-3YGEwYE7fbBooy-22">
          <mxGeometry x="50" y="40" width="80" height="80" as="geometry" />
        </mxCell>
        <mxCell id="AXCi9-3YGEwYE7fbBooy-26" value="" style="fontColor=#0066CC;verticalAlign=top;verticalLabelPosition=bottom;labelPosition=center;align=center;html=1;outlineConnect=0;fillColor=#CCCCCC;strokeColor=#6881B3;gradientColor=none;gradientDirection=north;strokeWidth=2;shape=mxgraph.networks.server;dashed=1;shadow=1;" vertex="1" parent="AXCi9-3YGEwYE7fbBooy-22">
          <mxGeometry x="190" y="40" width="80" height="80" as="geometry" />
        </mxCell>
        <mxCell id="AXCi9-3YGEwYE7fbBooy-29" value="" style="shape=singleArrow;whiteSpace=wrap;html=1;shadow=1;strokeColor=#006600;strokeWidth=0;fillColor=#99CCFF;" vertex="1" parent="1">
          <mxGeometry x="450" y="465" width="100" height="60" as="geometry" />
        </mxCell>
        <mxCell id="AXCi9-3YGEwYE7fbBooy-31" value="" style="shape=singleArrow;whiteSpace=wrap;html=1;shadow=1;strokeColor=#006600;strokeWidth=0;fillColor=#99CCFF;" vertex="1" parent="1">
          <mxGeometry x="460" y="225" width="100" height="60" as="geometry" />
        </mxCell>
        <mxCell id="AXCi9-3YGEwYE7fbBooy-35" value="" style="whiteSpace=wrap;html=1;dashed=1;strokeColor=#006600;strokeWidth=2;shadow=1;" vertex="1" parent="1">
          <mxGeometry x="380" y="670" width="760" height="510" as="geometry" />
        </mxCell>
        <mxCell id="AXCi9-3YGEwYE7fbBooy-36" style="edgeStyle=orthogonalEdgeStyle;rounded=0;orthogonalLoop=1;jettySize=auto;html=1;" edge="1" parent="1" source="AXCi9-3YGEwYE7fbBooy-37" target="AXCi9-3YGEwYE7fbBooy-42">
          <mxGeometry relative="1" as="geometry">
            <Array as="points">
              <mxPoint x="250" y="735" />
              <mxPoint x="250" y="805" />
            </Array>
          </mxGeometry>
        </mxCell>
        <mxCell id="AXCi9-3YGEwYE7fbBooy-37" value="" style="aspect=fixed;perimeter=ellipsePerimeter;html=1;align=center;shadow=0;dashed=0;spacingTop=3;image;image=img/lib/active_directory/user.svg;" vertex="1" parent="1">
          <mxGeometry x="130" y="710" width="18.5" height="50" as="geometry" />
        </mxCell>
        <mxCell id="AXCi9-3YGEwYE7fbBooy-38" style="edgeStyle=orthogonalEdgeStyle;rounded=0;orthogonalLoop=1;jettySize=auto;html=1;" edge="1" parent="1" source="AXCi9-3YGEwYE7fbBooy-39" target="AXCi9-3YGEwYE7fbBooy-42">
          <mxGeometry relative="1" as="geometry">
            <Array as="points">
              <mxPoint x="250" y="885" />
              <mxPoint x="250" y="805" />
            </Array>
          </mxGeometry>
        </mxCell>
        <mxCell id="AXCi9-3YGEwYE7fbBooy-39" value="" style="aspect=fixed;perimeter=ellipsePerimeter;html=1;align=center;shadow=0;dashed=0;spacingTop=3;image;image=img/lib/active_directory/user.svg;" vertex="1" parent="1">
          <mxGeometry x="130" y="860" width="18.5" height="50" as="geometry" />
        </mxCell>
        <mxCell id="AXCi9-3YGEwYE7fbBooy-40" style="edgeStyle=orthogonalEdgeStyle;rounded=0;orthogonalLoop=1;jettySize=auto;html=1;" edge="1" parent="1" source="AXCi9-3YGEwYE7fbBooy-41" target="AXCi9-3YGEwYE7fbBooy-42">
          <mxGeometry relative="1" as="geometry" />
        </mxCell>
        <mxCell id="AXCi9-3YGEwYE7fbBooy-41" value="" style="aspect=fixed;perimeter=ellipsePerimeter;html=1;align=center;shadow=0;dashed=0;spacingTop=3;image;image=img/lib/active_directory/user.svg;" vertex="1" parent="1">
          <mxGeometry x="90" y="780" width="18.5" height="50" as="geometry" />
        </mxCell>
        <mxCell id="AXCi9-3YGEwYE7fbBooy-42" value="app.dell.com" style="verticalLabelPosition=bottom;sketch=0;aspect=fixed;html=1;verticalAlign=top;strokeColor=none;align=center;outlineConnect=0;shape=mxgraph.citrix.proxy_server;fontStyle=0;fontSize=20;" vertex="1" parent="1">
          <mxGeometry x="350" y="760" width="76.5" height="90" as="geometry" />
        </mxCell>
        <mxCell id="AXCi9-3YGEwYE7fbBooy-43" value="app-next.dell.com" style="verticalLabelPosition=bottom;sketch=0;aspect=fixed;html=1;verticalAlign=top;strokeColor=none;align=center;outlineConnect=0;shape=mxgraph.citrix.proxy_server;fontStyle=0;fontSize=20;" vertex="1" parent="1">
          <mxGeometry x="350" y="1010" width="76.5" height="90" as="geometry" />
        </mxCell>
        <mxCell id="AXCi9-3YGEwYE7fbBooy-44" style="edgeStyle=orthogonalEdgeStyle;rounded=0;orthogonalLoop=1;jettySize=auto;html=1;" edge="1" parent="1" source="AXCi9-3YGEwYE7fbBooy-45" target="AXCi9-3YGEwYE7fbBooy-43">
          <mxGeometry relative="1" as="geometry" />
        </mxCell>
        <mxCell id="AXCi9-3YGEwYE7fbBooy-45" value="" style="aspect=fixed;perimeter=ellipsePerimeter;html=1;align=center;shadow=0;dashed=0;spacingTop=3;image;image=img/lib/active_directory/user.svg;" vertex="1" parent="1">
          <mxGeometry x="111.5" y="1030" width="18.5" height="50" as="geometry" />
        </mxCell>
        <mxCell id="AXCi9-3YGEwYE7fbBooy-46" value="" style="group" vertex="1" connectable="0" parent="1">
          <mxGeometry x="570" y="720" width="480" height="170" as="geometry" />
        </mxCell>
        <mxCell id="AXCi9-3YGEwYE7fbBooy-47" value="" style="whiteSpace=wrap;html=1;shadow=1;strokeColor=#006600;strokeWidth=0;fillColor=#99FF99;" vertex="1" parent="AXCi9-3YGEwYE7fbBooy-46">
          <mxGeometry width="480" height="170" as="geometry" />
        </mxCell>
        <mxCell id="AXCi9-3YGEwYE7fbBooy-48" value="" style="fontColor=#0066CC;verticalAlign=top;verticalLabelPosition=bottom;labelPosition=center;align=center;html=1;outlineConnect=0;fillColor=#CCCCCC;strokeColor=#6881B3;gradientColor=none;gradientDirection=north;strokeWidth=2;shape=mxgraph.networks.server;dashed=1;shadow=1;" vertex="1" parent="AXCi9-3YGEwYE7fbBooy-46">
          <mxGeometry x="330" y="40" width="80" height="80" as="geometry" />
        </mxCell>
        <mxCell id="AXCi9-3YGEwYE7fbBooy-49" value="" style="fontColor=#0066CC;verticalAlign=top;verticalLabelPosition=bottom;labelPosition=center;align=center;html=1;outlineConnect=0;fillColor=#CCCCCC;strokeColor=#6881B3;gradientColor=none;gradientDirection=north;strokeWidth=2;shape=mxgraph.networks.server;dashed=1;shadow=1;" vertex="1" parent="AXCi9-3YGEwYE7fbBooy-46">
          <mxGeometry x="50" y="40" width="80" height="80" as="geometry" />
        </mxCell>
        <mxCell id="AXCi9-3YGEwYE7fbBooy-50" value="" style="fontColor=#0066CC;verticalAlign=top;verticalLabelPosition=bottom;labelPosition=center;align=center;html=1;outlineConnect=0;fillColor=#CCCCCC;strokeColor=#6881B3;gradientColor=none;gradientDirection=north;strokeWidth=2;shape=mxgraph.networks.server;dashed=1;shadow=1;" vertex="1" parent="AXCi9-3YGEwYE7fbBooy-46">
          <mxGeometry x="190" y="40" width="80" height="80" as="geometry" />
        </mxCell>
        <mxCell id="AXCi9-3YGEwYE7fbBooy-51" value="" style="group;fillColor=#99CCFF;strokeColor=#6c8ebf;strokeWidth=0;" vertex="1" connectable="0" parent="1">
          <mxGeometry x="570" y="960" width="480" height="170" as="geometry" />
        </mxCell>
        <mxCell id="AXCi9-3YGEwYE7fbBooy-52" value="" style="whiteSpace=wrap;html=1;shadow=1;strokeColor=none;strokeWidth=0;fillColor=#99CCFF;" vertex="1" parent="AXCi9-3YGEwYE7fbBooy-51">
          <mxGeometry width="480" height="170" as="geometry" />
        </mxCell>
        <mxCell id="AXCi9-3YGEwYE7fbBooy-53" value="" style="fontColor=#0066CC;verticalAlign=top;verticalLabelPosition=bottom;labelPosition=center;align=center;html=1;outlineConnect=0;fillColor=#CCCCCC;strokeColor=#6881B3;gradientColor=none;gradientDirection=north;strokeWidth=2;shape=mxgraph.networks.server;dashed=1;shadow=1;" vertex="1" parent="AXCi9-3YGEwYE7fbBooy-51">
          <mxGeometry x="330" y="40" width="80" height="80" as="geometry" />
        </mxCell>
        <mxCell id="AXCi9-3YGEwYE7fbBooy-54" value="" style="fontColor=#0066CC;verticalAlign=top;verticalLabelPosition=bottom;labelPosition=center;align=center;html=1;outlineConnect=0;fillColor=#CCCCCC;strokeColor=#6881B3;gradientColor=none;gradientDirection=north;strokeWidth=2;shape=mxgraph.networks.server;dashed=1;shadow=1;" vertex="1" parent="AXCi9-3YGEwYE7fbBooy-51">
          <mxGeometry x="50" y="40" width="80" height="80" as="geometry" />
        </mxCell>
        <mxCell id="AXCi9-3YGEwYE7fbBooy-55" value="" style="fontColor=#0066CC;verticalAlign=top;verticalLabelPosition=bottom;labelPosition=center;align=center;html=1;outlineConnect=0;fillColor=#CCCCCC;strokeColor=#6881B3;gradientColor=none;gradientDirection=north;strokeWidth=2;shape=mxgraph.networks.server;dashed=1;shadow=1;" vertex="1" parent="AXCi9-3YGEwYE7fbBooy-51">
          <mxGeometry x="190" y="40" width="80" height="80" as="geometry" />
        </mxCell>
        <mxCell id="AXCi9-3YGEwYE7fbBooy-57" value="" style="shape=singleArrow;whiteSpace=wrap;html=1;shadow=1;strokeColor=#006600;strokeWidth=0;fillColor=#99CCFF;direction=north;rotation=35;" vertex="1" parent="1">
          <mxGeometry x="470" y="850" width="60" height="145" as="geometry" />
        </mxCell>
        <mxCell id="AXCi9-3YGEwYE7fbBooy-59" value="" style="shape=singleArrow;whiteSpace=wrap;html=1;shadow=1;strokeColor=#006600;strokeWidth=0;fillColor=#99CCFF;direction=north;rotation=145;" vertex="1" parent="1">
          <mxGeometry x="470" y="860" width="60" height="145" as="geometry" />
        </mxCell>
        <mxCell id="AXCi9-3YGEwYE7fbBooy-83" style="edgeStyle=orthogonalEdgeStyle;shape=flexArrow;rounded=0;orthogonalLoop=1;jettySize=auto;html=1;strokeColor=#003300;" edge="1" parent="1" source="AXCi9-3YGEwYE7fbBooy-60" target="AXCi9-3YGEwYE7fbBooy-68">
          <mxGeometry relative="1" as="geometry">
            <Array as="points">
              <mxPoint x="1410" y="340" />
              <mxPoint x="1410" y="245" />
            </Array>
          </mxGeometry>
        </mxCell>
        <mxCell id="AXCi9-3YGEwYE7fbBooy-84" style="edgeStyle=orthogonalEdgeStyle;shape=flexArrow;rounded=0;orthogonalLoop=1;jettySize=auto;html=1;strokeColor=#000066;" edge="1" parent="1" source="AXCi9-3YGEwYE7fbBooy-60" target="AXCi9-3YGEwYE7fbBooy-69">
          <mxGeometry relative="1" as="geometry">
            <Array as="points">
              <mxPoint x="1410" y="390" />
              <mxPoint x="1410" y="490" />
            </Array>
          </mxGeometry>
        </mxCell>
        <mxCell id="AXCi9-3YGEwYE7fbBooy-60" value="" style="sketch=0;points=[[0,0,0],[0.25,0,0],[0.5,0,0],[0.75,0,0],[1,0,0],[0,1,0],[0.25,1,0],[0.5,1,0],[0.75,1,0],[1,1,0],[0,0.25,0],[0,0.5,0],[0,0.75,0],[1,0.25,0],[1,0.5,0],[1,0.75,0]];outlineConnect=0;fontColor=#232F3E;gradientColor=#4AB29A;gradientDirection=north;fillColor=#116D5B;strokeColor=#ffffff;dashed=0;verticalLabelPosition=bottom;verticalAlign=top;align=center;html=1;fontSize=12;fontStyle=0;aspect=fixed;shape=mxgraph.aws4.resourceIcon;resIcon=mxgraph.aws4.application_discovery_service;shadow=1;" vertex="1" parent="1">
          <mxGeometry x="1240" y="326" width="78" height="78" as="geometry" />
        </mxCell>
        <mxCell id="AXCi9-3YGEwYE7fbBooy-61" style="edgeStyle=orthogonalEdgeStyle;shape=flexArrow;rounded=0;orthogonalLoop=1;jettySize=auto;html=1;strokeColor=#006600;" edge="1" parent="1" source="AXCi9-3YGEwYE7fbBooy-17" target="AXCi9-3YGEwYE7fbBooy-60">
          <mxGeometry relative="1" as="geometry">
            <Array as="points">
              <mxPoint x="660" y="130" />
              <mxPoint x="1279" y="130" />
            </Array>
          </mxGeometry>
        </mxCell>
        <mxCell id="AXCi9-3YGEwYE7fbBooy-62" style="edgeStyle=orthogonalEdgeStyle;shape=flexArrow;rounded=0;orthogonalLoop=1;jettySize=auto;html=1;strokeColor=#006600;" edge="1" parent="1" source="AXCi9-3YGEwYE7fbBooy-18" target="AXCi9-3YGEwYE7fbBooy-60">
          <mxGeometry relative="1" as="geometry">
            <Array as="points">
              <mxPoint x="800" y="130" />
              <mxPoint x="1279" y="130" />
            </Array>
          </mxGeometry>
        </mxCell>
        <mxCell id="AXCi9-3YGEwYE7fbBooy-63" style="edgeStyle=orthogonalEdgeStyle;shape=flexArrow;rounded=0;orthogonalLoop=1;jettySize=auto;html=1;strokeColor=#006600;" edge="1" parent="1" source="AXCi9-3YGEwYE7fbBooy-15" target="AXCi9-3YGEwYE7fbBooy-60">
          <mxGeometry relative="1" as="geometry">
            <Array as="points">
              <mxPoint x="940" y="130" />
              <mxPoint x="1279" y="130" />
            </Array>
          </mxGeometry>
        </mxCell>
        <mxCell id="AXCi9-3YGEwYE7fbBooy-64" style="edgeStyle=orthogonalEdgeStyle;shape=flexArrow;rounded=0;orthogonalLoop=1;jettySize=auto;html=1;strokeColor=#000099;" edge="1" parent="1" source="AXCi9-3YGEwYE7fbBooy-25" target="AXCi9-3YGEwYE7fbBooy-60">
          <mxGeometry relative="1" as="geometry">
            <Array as="points">
              <mxPoint x="660" y="590" />
              <mxPoint x="1279" y="590" />
            </Array>
          </mxGeometry>
        </mxCell>
        <mxCell id="AXCi9-3YGEwYE7fbBooy-65" style="edgeStyle=orthogonalEdgeStyle;shape=flexArrow;rounded=0;orthogonalLoop=1;jettySize=auto;html=1;strokeColor=#000099;" edge="1" parent="1" source="AXCi9-3YGEwYE7fbBooy-26" target="AXCi9-3YGEwYE7fbBooy-60">
          <mxGeometry relative="1" as="geometry">
            <Array as="points">
              <mxPoint x="800" y="590" />
              <mxPoint x="1279" y="590" />
            </Array>
          </mxGeometry>
        </mxCell>
        <mxCell id="AXCi9-3YGEwYE7fbBooy-66" style="edgeStyle=orthogonalEdgeStyle;shape=flexArrow;rounded=0;orthogonalLoop=1;jettySize=auto;html=1;strokeColor=#000099;" edge="1" parent="1" source="AXCi9-3YGEwYE7fbBooy-24" target="AXCi9-3YGEwYE7fbBooy-60">
          <mxGeometry relative="1" as="geometry">
            <Array as="points">
              <mxPoint x="940" y="590" />
              <mxPoint x="1279" y="590" />
            </Array>
          </mxGeometry>
        </mxCell>
        <mxCell id="AXCi9-3YGEwYE7fbBooy-67" value="" style="whiteSpace=wrap;html=1;dashed=1;strokeColor=#006600;strokeWidth=2;shadow=1;" vertex="1" parent="1">
          <mxGeometry x="1540" y="110" width="420" height="510" as="geometry" />
        </mxCell>
        <mxCell id="AXCi9-3YGEwYE7fbBooy-68" value="svc.dell.com" style="verticalLabelPosition=bottom;sketch=0;aspect=fixed;html=1;verticalAlign=top;strokeColor=none;align=center;outlineConnect=0;shape=mxgraph.citrix.proxy_server;fontStyle=0;fontSize=20;" vertex="1" parent="1">
          <mxGeometry x="1510" y="200" width="76.5" height="90" as="geometry" />
        </mxCell>
        <mxCell id="AXCi9-3YGEwYE7fbBooy-69" value="svc-next.dell.com" style="verticalLabelPosition=bottom;sketch=0;aspect=fixed;html=1;verticalAlign=top;strokeColor=none;align=center;outlineConnect=0;shape=mxgraph.citrix.proxy_server;fontStyle=0;horizontal=1;fontSize=20;" vertex="1" parent="1">
          <mxGeometry x="1510" y="450" width="76.5" height="90" as="geometry" />
        </mxCell>
        <mxCell id="AXCi9-3YGEwYE7fbBooy-70" value="" style="group" vertex="1" connectable="0" parent="1">
          <mxGeometry x="1730" y="160" width="180" height="170" as="geometry" />
        </mxCell>
        <mxCell id="AXCi9-3YGEwYE7fbBooy-71" value="" style="whiteSpace=wrap;html=1;shadow=1;strokeColor=#006600;strokeWidth=0;fillColor=#99FF99;" vertex="1" parent="AXCi9-3YGEwYE7fbBooy-70">
          <mxGeometry width="180" height="170" as="geometry" />
        </mxCell>
        <mxCell id="AXCi9-3YGEwYE7fbBooy-82" value="" style="fontColor=#0066CC;verticalAlign=top;verticalLabelPosition=bottom;labelPosition=center;align=center;html=1;outlineConnect=0;fillColor=#CCCCCC;strokeColor=#6881B3;gradientColor=none;gradientDirection=north;strokeWidth=2;shape=mxgraph.networks.server;dashed=1;shadow=1;" vertex="1" parent="AXCi9-3YGEwYE7fbBooy-70">
          <mxGeometry x="60" y="40" width="80" height="80" as="geometry" />
        </mxCell>
        <mxCell id="AXCi9-3YGEwYE7fbBooy-75" value="" style="group;fillColor=#99CCFF;strokeColor=#6c8ebf;strokeWidth=0;" vertex="1" connectable="0" parent="1">
          <mxGeometry x="1730" y="400" width="180" height="170" as="geometry" />
        </mxCell>
        <mxCell id="AXCi9-3YGEwYE7fbBooy-76" value="" style="whiteSpace=wrap;html=1;shadow=1;strokeColor=none;strokeWidth=0;fillColor=#99CCFF;" vertex="1" parent="AXCi9-3YGEwYE7fbBooy-75">
          <mxGeometry width="180" height="170" as="geometry" />
        </mxCell>
        <mxCell id="AXCi9-3YGEwYE7fbBooy-73" value="" style="fontColor=#0066CC;verticalAlign=top;verticalLabelPosition=bottom;labelPosition=center;align=center;html=1;outlineConnect=0;fillColor=#CCCCCC;strokeColor=#6881B3;gradientColor=none;gradientDirection=north;strokeWidth=2;shape=mxgraph.networks.server;dashed=1;shadow=1;" vertex="1" parent="AXCi9-3YGEwYE7fbBooy-75">
          <mxGeometry x="50" y="50" width="80" height="80" as="geometry" />
        </mxCell>
        <mxCell id="AXCi9-3YGEwYE7fbBooy-80" value="" style="shape=singleArrow;whiteSpace=wrap;html=1;shadow=1;strokeColor=#006600;strokeWidth=0;fillColor=#99CCFF;" vertex="1" parent="1">
          <mxGeometry x="1610" y="465" width="100" height="60" as="geometry" />
        </mxCell>
        <mxCell id="AXCi9-3YGEwYE7fbBooy-81" value="" style="shape=singleArrow;whiteSpace=wrap;html=1;shadow=1;strokeColor=#006600;strokeWidth=0;fillColor=#99CCFF;" vertex="1" parent="1">
          <mxGeometry x="1620" y="225" width="100" height="60" as="geometry" />
        </mxCell>
      </root>
    </mxGraphModel>
  </diagram>
</mxfile>
